#tb 0: 1/25
0,          0,          0,        1,   149760, 0xa8d7adfa
0,          1,          1,        1,   149760, 0x76d1ddfe
0,          2,          2,        1,   149760, 0x56599cae
